#!OML:ASF F:\VICON\USERDATA\INSTALL\Justin_Nancy\Justin_Nancy.ASF
:FULLY-SPECIFIED
:DEGREES
32
root 12.3603 17.6425 -21.4536 0.257304 -1.8905 0.982102
lowerback 6.33114 0.837815 -0.948127
upperback -0.00357487 1.08826 1.14957
thorax -3.59468 0.567296 1.61783
lowerneck -15.1859 -4.21206 -9.36228
upperneck 20.3563 -4.95629 6.25605
head 9.31071 -2.37361 3.08842
rclavicle 9.49197e-015 -3.97569e-016
rhumerus -30.6347 -17.1268 -78.4009
rradius 29.7033
rwrist 7.99669
rhand -11.4692 9.23152
rfingers 7.12502
rthumb 14.5685 -20.2369
lclavicle 9.49197e-015 -3.97569e-016
lhumerus -34.8823 16.6855 81.7442
lradius 21.3804
lwrist -13.3231
lhand -12.5748 28.5783
lfingers 7.12502
lthumb 13.503 58.1205
rfemur -3.84358 2.75916 19.6615
rtibia 54.7204
rfoot 16.696 2.67794
rtoes -0.263148
lfemur -17.5181 1.03758 -24.3552
ltibia 21.1276
lfoot -4.10524 -5.47118
ltoes 3.64754
33
root 12.3868 17.6531 -21.3124 0.0653089 -1.96396 1.25536
lowerback 6.45439 0.80807 -1.20967
upperback 0.0831456 1.02606 1.09572
thorax -3.57559 0.539744 1.7142
lowerneck -15.2184 -4.14555 -9.28234
upperneck 20.3494 -4.84637 6.11158
head 9.29895 -2.33104 3.03871
rclavicle -1.54307e-014 -6.36111e-015
rhumerus -30.5987 -17.2384 -78.415
rradius 29.2033
rwrist 8.47152
rhand -12.0295 10.4044
rfingers 7.12502
rthumb 14.0286 -19.1022
lclavicle -1.54307e-014 -6.36111e-015
lhumerus -34.8623 15.1423 82.4236
lradius 22.2522
lwrist -11.8073
lhand -12.5507 29.0583
lfingers 7.12502
lthumb 13.5262 58.599
rfemur -5.11984 2.52141 19.1986
rtibia 56.9609
rfoot 16.3472 1.9671
rtoes -1.61544
lfemur -16.6981 1.24439 -24.7886
ltibia 21.0443
lfoot -4.4609 -5.47274
ltoes 4.87993
34
root 12.4115 17.6564 -21.1719 0.000244908 -2.06535 1.39055
lowerback 6.23508 0.827525 -1.3219
upperback 0.274103 1.04438 1.0756
thorax -3.25739 0.546707 1.75856
lowerneck -15.4372 -3.9834 -9.05605
upperneck 20.184 -4.60811 5.93405
head 9.25104 -2.21634 2.96645
rclavicle -7.1314e-015 8.74653e-015
rhumerus -30.2746 -17.5551 -78.3513
rradius 28.3194
rwrist 9.0543
rhand -12.5741 12.1622
rfingers 7.12502
rthumb 13.5037 -17.38
lclavicle -7.1314e-015 8.74653e-015
lhumerus -34.2538 14.3597 82.8331
lradius 22.4834
lwrist -11.5551
lhand -12.5032 29.4279
lfingers 7.12502
lthumb 13.572 58.9656
rfemur -6.50584 2.29039 18.9346
rtibia 59.0559
rfoot 15.3793 1.20576
rtoes -1.937
lfemur -16.1089 1.4508 -25.0632
ltibia 21.0433
lfoot -4.62472 -5.56526
ltoes 4.91261
35
root 12.4347 17.6622 -21.0287 -0.174086 -2.02773 1.31968
lowerback 6.12861 0.739153 -1.31733
upperback 0.415351 0.931597 1.2013
thorax -3.04922 0.488634 1.89792
lowerneck -14.9918 -4.00631 -9.24513
upperneck 20.0888 -4.59855 5.79504
head 9.13767 -2.24788 2.95409
rclavicle 3.72721e-015 -3.97569e-015
rhumerus -30.1547 -17.8154 -78.0708
rradius 27.2737
rwrist 10.2026
rhand -13.1484 14.2496
rfingers 7.12502
rthumb 12.9502 -15.3285
lclavicle 3.72721e-015 -3.97569e-015
lhumerus -33.7184 14.2216 83.0135
lradius 22.3358
lwrist -11.969
lhand -12.6341 29.2216
lfingers 7.12502
lthumb 13.4459 58.7677
rfemur -7.6925 1.99494 18.9738
rtibia 60.9541
rfoot 14.3046 0.297687
rtoes -0.594411
lfemur -15.4317 1.2904 -25.0646
ltibia 21.0971
lfoot -4.85076 -5.4744
ltoes 4.54926
36
root 12.4601 17.6627 -20.8896 -0.375793 -1.90959 1.4355
lowerback 6.31612 0.596681 -1.4509
upperback 0.482521 0.733245 1.28633
thorax -3.07914 0.39194 2.07728
lowerneck -15.0154 -3.90759 -9.43661
upperneck 20.1401 -4.38345 5.66829
head 9.14448 -2.1756 2.96992
rclavicle -1.92324e-014 -1.39149e-014
rhumerus -30.1554 -17.661 -77.9542
rradius 26.7906
rwrist 10.9152
rhand -13.2222 14.9502
rfingers 7.12502
rthumb 12.879 -14.6324
lclavicle -1.92324e-014 -1.39149e-014
lhumerus -33.337 14.4469 83.0499
lradius 22.1897
lwrist -12.9483
lhand -12.4089 29.203
lfingers 7.12502
lthumb 13.6629 58.7345
rfemur -8.90444 1.60788 18.7912
rtibia 62.7419
rfoot 13.1045 -0.604984
rtoes 0.713018
lfemur -14.8172 1.12906 -25.2881
ltibia 21.1791
lfoot -5.07001 -5.42576
ltoes 6.53447
37
root 12.4836 17.657 -20.7527 -0.527441 -1.84828 1.74196
lowerback 6.54737 0.484775 -1.73986
upperback 0.506578 0.560301 1.27462
thorax -3.17835 0.310503 2.2425
lowerneck -15.2945 -3.80315 -9.51883
upperneck 20.3757 -4.16524 5.52968
head 9.25881 -2.09305 2.96362
rclavicle -7.97623e-015 1.23246e-014
rhumerus -30.1858 -17.4439 -77.9941
rradius 26.6373
rwrist 11.4827
rhand -13.0066 14.6692
rfingers 7.12502
rthumb 13.0869 -14.9002
lclavicle -7.97623e-015 1.23246e-014
lhumerus -32.8945 14.3615 83.1435
lradius 22.0142
lwrist -13.553
lhand -12.1268 29.4607
lfingers 7.12502
lthumb 13.9348 58.9738
rfemur -10.224 1.23751 18.3678
rtibia 64.4003
rfoot 11.473 -1.62645
rtoes 0.885889
lfemur -14.1828 1.06509 -25.7293
ltibia 21.1325
lfoot -5.16849 -5.2917
ltoes 9.06181
38
root 12.504 17.6637 -20.6147 -0.508853 -1.77227 1.93685
lowerback 6.49829 0.36111 -1.96806
upperback 0.479693 0.379756 1.27735
thorax -3.17077 0.224042 2.39074
lowerneck -15.3582 -3.6822 -9.38373
upperneck 20.5886 -3.97674 5.29553
head 9.32116 -2.02142 2.88594
rclavicle 1.0635e-014 0
rhumerus -30.3662 -17.2521 -78.0269
rradius 26.6606
rwrist 12.0706
rhand -12.5654 14.5231
rfingers 7.12502
rthumb 13.5121 -15.0185
lclavicle 1.0635e-014 0
lhumerus -32.516 14.1125 83.248
lradius 22.0587
lwrist -13.643
lhand -12.4127 29.6495
lfingers 7.12502
lthumb 13.6592 59.1813
rfemur -11.6565 0.814547 18.0929
rtibia 65.8821
rfoot 10.0477 -2.53599
rtoes -0.0869935
lfemur -13.5148 1.0955 -26.0624
ltibia 20.8961
lfoot -5.37876 -5.2341
ltoes 8.1921
